<?xml version="1.0" standalone="no"?>
<!DOCTYPE svg PUBLIC "-//W3C//DTD SVG 20010904//EN"
 "http://www.w3.org/TR/2001/REC-SVG-20010904/DTD/svg10.dtd">
<svg version="1.0" xmlns="http://www.w3.org/2000/svg"
 width="512.000000pt" height="512.000000pt" viewBox="0 0 512.000000 512.000000"
 preserveAspectRatio="xMidYMid meet">

<g transform="translate(0.000000,512.000000) scale(0.100000,-0.100000)"
fill="#000000" stroke="none">
<path d="M2354 4932 c-140 -49 -233 -196 -222 -351 7 -93 30 -138 149 -286 58
-71 172 -213 253 -315 82 -102 155 -191 164 -197 38 -30 38 -30 237 217 50 62
115 142 145 179 218 261 242 302 241 429 0 150 -100 288 -238 328 -118 34
-239 -28 -325 -167 -16 -27 -33 -49 -36 -49 -4 0 -20 20 -35 44 -46 73 -140
153 -199 171 -64 19 -71 19 -134 -3z"/>
<path d="M1057 4910 c-43 -11 -108 -43 -150 -74 -37 -26 -103 -123 -122 -177
-74 -210 9 -441 191 -530 125 -62 251 -48 366 39 150 114 200 352 112 528 -80
159 -250 251 -397 214z"/>
<path d="M4687 4305 c-255 -55 -426 -114 -649 -226 -496 -249 -974 -756 -1303
-1383 -310 -590 -412 -1232 -275 -1722 38 -136 100 -250 100 -185 0 54 92 379
130 456 5 11 27 61 49 111 72 167 210 399 381 644 117 167 374 492 700 886 36
44 83 101 105 129 21 27 66 82 100 121 33 40 96 115 140 169 131 160 139 164
222 120 93 -48 123 -135 72 -207 -13 -18 -48 -62 -79 -99 -30 -36 -76 -92
-101 -125 -25 -32 -88 -111 -139 -174 -491 -604 -679 -847 -865 -1121 -139
-205 -273 -454 -330 -617 -71 -203 -131 -491 -142 -676 l-6 -109 59 6 c448 47
1098 451 1491 926 174 211 263 345 384 576 171 327 291 730 335 1128 24 217
15 610 -19 817 -41 243 -73 380 -125 535 -22 64 -27 64 -235 20z"/>
<path d="M975 3883 c-46 -6 -154 -43 -215 -73 -143 -72 -338 -246 -461 -412
-151 -203 -265 -464 -276 -632 -5 -74 -3 -94 12 -122 24 -45 92 -78 146 -71
70 9 99 42 204 234 107 195 209 341 274 392 43 34 71 36 71 4 0 -61 -25 -272
-50 -436 -74 -477 -59 -541 221 -929 46 -64 107 -149 134 -189 28 -40 90 -129
138 -198 116 -165 309 -479 397 -646 15 -27 71 -126 125 -220 54 -93 113 -196
131 -227 91 -159 122 -188 207 -188 57 0 61 2 103 44 35 34 44 51 44 77 0 55
-28 202 -70 369 -22 85 -42 166 -46 180 -3 14 -40 129 -81 255 -134 411 -298
790 -515 1185 l-57 106 6 292 c3 161 10 292 14 292 5 0 34 -16 65 -36 161
-103 300 -144 491 -144 221 0 313 37 343 137 18 59 6 107 -38 151 -42 42 -96
62 -168 62 -71 0 -168 26 -249 65 -124 60 -228 169 -391 412 -41 62 -98 133
-127 158 -102 91 -233 128 -382 108z"/>
<path d="M606 2059 c-15 -37 -30 -119 -66 -353 -6 -37 -31 -132 -57 -210 -42
-128 -86 -236 -273 -661 -86 -196 -150 -369 -157 -425 -7 -62 11 -114 51 -145
113 -86 198 -17 483 395 212 306 370 586 428 760 l27 80 -22 46 c-13 25 -55
87 -95 137 -70 90 -219 305 -263 380 -12 20 -25 37 -31 37 -5 0 -16 -19 -25
-41z"/>
</g>
</svg>
